<?xml version="1.0" encoding="UTF-8"?>
<svg xmlns="http://www.w3.org/2000/svg" xmlns:xlink="http://www.w3.org/1999/xlink" width="16px" height="16px" viewBox="0 0 16 16" version="1.1">
<g id="surface1">
<path style="fill:none;stroke-width:1;stroke-linecap:butt;stroke-linejoin:miter;stroke:rgb(59.215686%,59.215686%,68.627451%);stroke-opacity:1;stroke-miterlimit:4;" d="M 17.5 10 C 17.5 14.140625 14.140625 17.5 10 17.5 C 5.859375 17.5 2.5 14.140625 2.5 10 C 2.5 5.859375 5.859375 2.5 10 2.5 C 14.140625 2.5 17.5 5.859375 17.5 10 Z M 17.5 10 " transform="matrix(0.8,0,0,0.8,0,0)"/>
<path style=" stroke:none;fill-rule:nonzero;fill:rgb(59.215686%,59.215686%,68.627451%);fill-opacity:1;" d="M 7.910156 6.070312 C 7.703125 6.070312 7.53125 6.007812 7.398438 5.886719 C 7.265625 5.761719 7.199219 5.609375 7.199219 5.429688 C 7.199219 5.242188 7.265625 5.09375 7.398438 4.976562 C 7.53125 4.859375 7.703125 4.800781 7.910156 4.800781 C 8.121094 4.800781 8.292969 4.859375 8.421875 4.976562 C 8.554688 5.09375 8.621094 5.242188 8.621094 5.429688 C 8.621094 5.617188 8.554688 5.769531 8.421875 5.890625 C 8.292969 6.007812 8.121094 6.070312 7.910156 6.070312 Z M 8.519531 10.703125 L 7.285156 10.703125 L 7.285156 6.703125 L 8.519531 6.703125 Z M 8.519531 10.703125 "/>
</g>
</svg>
